<?xml version="1.0" standalone="no"?>
<!DOCTYPE svg PUBLIC "-//W3C//DTD SVG 20010904//EN"
 "http://www.w3.org/TR/2001/REC-SVG-20010904/DTD/svg10.dtd">
<svg version="1.0" xmlns="http://www.w3.org/2000/svg"
 width="612.000000pt" height="408.000000pt" viewBox="0 0 612.000000 408.000000"
 preserveAspectRatio="xMidYMid meet">

<g transform="translate(0.000000,408.000000) scale(0.100000,-0.100000)"
fill="#000000" stroke="none">
<path d="M2965 3770 c-33 -11 -69 -24 -80 -31 -13 -8 -20 -8 -23 -1 -2 7 -13
5 -30 -4 -15 -7 -34 -11 -43 -9 -47 15 -161 -127 -161 -201 0 -19 -4 -34 -9
-34 -5 0 -9 -6 -9 -12 0 -7 -30 -35 -66 -62 -73 -54 -119 -110 -180 -218 -58
-102 -88 -197 -81 -261 3 -33 -2 -75 -14 -119 -11 -37 -19 -80 -19 -95 0 -36
19 -133 40 -210 19 -66 11 -108 -20 -108 -8 0 -18 -4 -22 -10 -5 -6 -8 -5 -8
3 0 9 -5 10 -19 2 -11 -5 -30 -10 -43 -10 -21 -1 -22 -1 -4 -11 14 -9 16 -13
5 -20 -7 -4 -10 -12 -5 -16 4 -4 131 -9 283 -11 l275 -3 -8 23 c-4 13 -7 29
-7 36 0 6 -4 12 -8 12 -11 0 -38 86 -45 145 -4 28 -10 55 -15 61 -14 18 -39
127 -33 146 9 30 42 32 80 3 34 -26 130 -50 139 -34 3 4 -1 10 -7 12 -10 4
-10 6 0 6 7 1 10 6 7 11 -3 6 1 10 9 10 21 0 37 32 25 51 -7 11 -9 11 -9 -3 0
-10 -5 -18 -11 -18 -6 0 -9 9 -6 20 3 10 0 21 -7 23 -21 8 -46 -13 -46 -38 0
-27 -9 -32 -28 -13 -21 21 -13 39 23 54 56 23 61 22 155 -43 16 -10 10 -1 -15
25 -48 52 -35 56 17 5 27 -26 38 -32 38 -21 0 9 -6 23 -13 30 -8 7 -12 18 -10
23 5 17 -59 52 -112 63 -57 11 -135 5 -135 -10 0 -6 -7 -8 -15 -4 -8 3 -15 1
-15 -4 0 -6 -4 -10 -10 -10 -18 0 -10 26 14 49 42 39 150 46 254 15 27 -8 29
6 5 35 -13 15 -42 25 -107 37 -82 15 -91 15 -116 0 -16 -9 -31 -16 -34 -16 -6
0 14 51 24 60 15 15 28 49 20 52 -6 2 -4 14 4 29 7 15 14 39 14 55 0 18 9 36
27 51 22 19 25 26 15 38 -10 13 -6 18 23 30 46 19 117 19 190 0 74 -19 106
-19 113 0 5 11 10 13 19 5 7 -6 17 -10 21 -9 69 12 147 -37 213 -135 43 -63
111 -187 111 -201 0 -2 -18 5 -39 16 -37 19 -45 20 -116 8 -76 -13 -117 -31
-103 -45 4 -4 48 -1 97 5 133 19 151 6 225 -155 51 -112 53 -129 30 -259 -9
-49 -19 -123 -23 -163 l-7 -73 233 2 c203 1 264 7 222 21 -6 2 -9 19 -7 38 3
32 4 33 21 16 9 -10 17 -13 17 -7 0 5 -4 13 -10 16 -5 3 -10 16 -10 29 0 12
-6 28 -12 35 -11 11 -10 13 5 8 9 -4 17 -4 17 -1 0 13 -32 64 -40 64 -6 0 -9
3 -8 8 1 4 -9 25 -23 47 -40 62 -57 124 -46 162 6 21 6 50 0 80 -5 27 -6 59
-2 73 19 69 -2 180 -42 216 -10 9 -19 25 -19 35 0 27 -47 77 -79 84 -38 8 -66
34 -75 68 -3 15 -11 27 -16 27 -5 0 -18 17 -29 38 -11 20 -35 54 -55 76 -20
21 -36 45 -36 52 0 23 -113 130 -167 157 -28 15 -54 31 -58 37 -3 5 -13 10
-21 10 -8 0 -36 9 -62 21 -79 35 -86 38 -127 48 -53 14 -79 13 -150 -9z m557
-295 c3 3 8 -3 11 -15 3 -11 1 -18 -4 -14 -5 3 -10 -5 -10 -18 -1 -17 -3 -18
-6 -5 -2 9 -8 15 -13 12 -4 -2 -8 14 -8 38 -1 39 0 40 12 19 6 -12 15 -20 18
-17z m-20 -67 c4 -37 4 -44 -1 -52 -5 -11 -19 21 -20 47 -1 19 18 24 21 5z
m153 -138 c13 -6 15 -9 5 -9 -8 0 -22 4 -30 9 -18 12 -2 12 25 0z m-51 -46 c3
-8 2 -12 -4 -9 -6 3 -10 10 -10 16 0 14 7 11 14 -7z m206 -36 c0 -6 -6 -5 -15
2 -8 7 -15 14 -15 16 0 2 7 1 15 -2 8 -4 15 -11 15 -16z m-85 2 c3 -5 2 -10
-4 -10 -5 0 -13 5 -16 10 -3 6 -2 10 4 10 5 0 13 -4 16 -10z m-901 -405 c3 -8
1 -15 -4 -15 -6 0 -10 7 -10 15 0 8 2 15 4 15 2 0 6 -7 10 -15z m1061 -405 c3
-6 -1 -7 -9 -4 -18 7 -21 14 -7 14 6 0 13 -4 16 -10z m17 -34 c10 6 11 4 0 -7
-10 -11 -15 -10 -30 6 -15 17 -15 18 0 6 9 -7 23 -9 30 -5z"/>
<path d="M2813 3758 c-13 -6 -23 -15 -23 -20 0 -10 36 7 45 22 7 12 7 12 -22
-2z"/>
<path d="M3290 2882 c-30 -13 -61 -40 -64 -53 -1 -8 -5 -20 -9 -26 -12 -19 0
-16 41 12 51 35 96 33 133 -5 33 -32 31 -46 -7 -60 -13 -5 -24 -17 -24 -26 0
-23 42 -11 86 24 28 22 33 32 29 52 -7 26 -37 60 -72 79 -23 12 -89 14 -113 3z"/>
<path d="M2999 2831 c12 -17 19 -31 15 -31 -3 0 -2 -6 5 -13 8 -10 7 -17 -1
-25 -8 -8 -9 -15 -2 -22 12 -12 -22 -93 -60 -145 -44 -59 -38 -89 19 -100 l30
-6 -22 17 c-13 9 -23 21 -23 27 0 5 10 19 23 31 27 26 62 126 54 156 -3 12 -1
31 6 41 9 15 7 26 -10 56 -12 21 -29 40 -39 42 -14 2 -13 -2 5 -28z"/>
<path d="M3319 2811 c14 -4 26 -12 29 -19 5 -15 -14 -16 -23 -2 -10 16 -25 1
-18 -18 6 -15 5 -16 -12 -2 -17 14 -18 13 -12 -4 6 -15 3 -18 -18 -14 -29 6
-31 2 -11 -18 19 -18 46 -18 46 0 0 9 7 12 19 9 17 -4 51 20 51 37 0 17 -32
40 -53 39 -21 -1 -20 -1 2 -8z"/>
<path d="M1272 2569 c-18 -6 -45 -17 -61 -27 -46 -28 -211 -234 -211 -263 0
-18 171 -183 231 -223 79 -52 160 -66 235 -41 72 24 98 59 92 120 -6 53 -32
90 -80 112 -21 10 -38 20 -38 23 0 3 23 28 50 55 46 46 50 53 50 98 0 54 -12
82 -48 113 -46 41 -143 55 -220 33z"/>
<path d="M2987 2543 c-9 -8 12 -33 28 -33 8 0 15 -5 17 -10 2 -7 11 -5 23 4
16 12 17 16 6 30 -13 16 -62 22 -74 9z"/>
<path d="M3135 2539 c-10 -16 0 -21 29 -13 14 3 23 10 20 15 -7 12 -41 11 -49
-2z"/>
<path d="M2871 2372 c-52 -26 -51 -42 1 -42 24 0 50 6 57 13 9 9 50 11 148 9
75 -1 134 1 130 5 -4 4 -33 8 -65 9 -31 1 -77 7 -102 13 -68 15 -131 13 -169
-7z"/>
<path d="M4038 2345 c-3 -14 -1 -25 3 -25 5 0 9 11 9 25 0 14 -2 25 -4 25 -2
0 -6 -11 -8 -25z"/>
<path d="M3262 2338 c7 -20 58 -23 58 -4 0 11 -10 16 -31 16 -20 0 -29 -4 -27
-12z"/>
<path d="M4413 2247 c-11 -24 -10 -25 90 -52 56 -16 140 -39 187 -52 166 -46
160 -46 175 -10 7 18 15 50 17 72 l3 40 -185 7 c-102 4 -199 9 -217 12 -19 3
-34 0 -37 -7 -3 -9 -7 -9 -14 1 -6 9 -11 7 -19 -11z"/>
<path d="M2164 2228 c3 -13 8 -52 11 -88 4 -36 19 -105 35 -155 34 -108 54
-225 44 -257 -4 -12 -23 -37 -43 -55 -33 -30 -34 -33 -13 -33 30 0 28 -22 -8
-60 -16 -18 -30 -37 -30 -44 0 -6 5 -4 10 4 5 8 10 10 10 4 0 -5 -9 -20 -20
-32 -26 -27 -23 -68 7 -101 12 -14 28 -39 35 -55 6 -17 18 -34 25 -39 23 -14
27 -73 6 -104 -38 -55 -37 -88 3 -58 24 18 44 19 44 1 0 -7 10 -16 23 -20 33
-9 37 -7 31 9 -7 18 11 20 22 3 4 -6 7 -41 6 -77 -1 -46 1 -60 7 -46 13 27 67
85 81 85 6 0 8 5 5 11 -4 6 3 21 16 35 12 13 19 27 16 31 -4 3 -7 1 -7 -5 0
-7 -5 -12 -11 -12 -15 0 -54 93 -41 98 12 4 9 17 -15 70 -18 42 -10 90 12 72
8 -7 15 -21 15 -31 0 -10 4 -21 10 -24 20 -12 51 -100 46 -128 -4 -17 -2 -26
4 -22 6 3 10 14 10 23 0 15 2 15 10 2 10 -17 4 40 -11 100 -10 40 5 67 19 31
4 -13 6 19 4 77 -4 95 7 150 27 138 4 -3 17 1 27 9 10 8 24 14 29 15 6 0 5 -4
-2 -8 -8 -5 -6 -14 8 -31 17 -21 19 -21 20 -5 0 15 2 13 10 -6 l10 -25 21 33
c11 17 25 32 31 32 6 0 8 3 4 6 -3 3 5 24 19 45 13 21 24 43 24 49 0 5 4 10
10 10 5 0 16 14 23 31 8 22 23 35 47 43 25 8 42 25 66 66 37 62 43 104 17 119
-16 9 -16 10 4 11 22 0 21 2 -14 53 -43 60 -51 67 -70 60 -7 -3 -13 0 -13 6 0
6 -8 11 -19 11 -10 0 -30 11 -45 25 -27 25 -35 55 -15 55 6 0 9 8 6 19 -2 10
0 26 5 35 8 15 -16 16 -297 16 l-305 0 4 -22z m340 -704 c9 -23 7 -74 -2 -74
-5 0 -7 -15 -4 -32 4 -27 2 -31 -9 -21 -17 16 -28 120 -15 133 14 14 23 12 30
-6z"/>
<path d="M2820 2243 c56 -9 67 -14 77 -36 13 -28 92 -70 124 -65 l21 3 -21 27
-21 27 22 3 c18 3 15 6 -14 12 -22 5 -38 14 -38 22 0 11 -19 14 -87 13 -49 -1
-77 -3 -63 -6z"/>
<path d="M3048 2243 c23 -2 59 -2 80 0 20 2 1 4 -43 4 -44 0 -61 -2 -37 -4z"/>
<path d="M3410 2236 c0 -8 61 -12 66 -4 3 4 -11 8 -30 8 -20 0 -36 -2 -36 -4z"/>
<path d="M3509 2198 c-12 -24 -38 -65 -57 -92 -34 -46 -36 -53 -34 -120 1 -39
11 -107 22 -151 11 -44 19 -92 18 -105 -2 -29 42 -135 51 -123 3 4 15 9 27 11
24 3 49 -46 59 -118 6 -52 40 -125 89 -192 33 -45 33 -49 30 -127 -3 -66 -1
-81 11 -81 8 0 15 7 15 17 0 9 3 14 6 10 8 -8 44 30 44 47 0 8 5 18 10 21 6 3
10 22 10 42 0 39 -3 38 75 9 24 -8 41 -10 43 -5 2 6 15 3 28 -6 24 -15 24 -15
12 12 -7 16 -21 36 -31 45 -12 11 -16 24 -13 36 6 16 3 19 -19 14 -25 -4 -35
11 -14 24 18 11 89 169 89 197 0 14 -4 29 -10 32 -5 3 -10 11 -10 16 0 19 36
-9 65 -51 15 -22 30 -38 32 -36 21 20 -71 176 -103 176 -11 0 -13 6 -9 21 5
14 3 19 -4 15 -5 -4 -19 2 -30 13 -10 10 -25 23 -33 27 -19 12 -51 64 -44 72
9 8 74 -57 82 -81 4 -14 9 -16 17 -8 9 9 -7 29 -61 80 -71 67 -89 102 -57 115
8 3 15 15 15 26 0 12 4 19 9 16 11 -7 28 35 36 91 l7 43 22 -28 c66 -78 85
-166 55 -255 -11 -33 -18 -62 -15 -65 11 -11 47 42 61 91 18 62 19 112 3 174
-10 37 -10 47 -1 50 9 3 10 10 3 23 -10 19 -4 50 13 61 5 4 7 18 4 31 l-6 24
-245 3 -245 3 -22 -44z m451 -8 c0 -5 -2 -10 -4 -10 -3 0 -8 5 -11 10 -3 6 -1
10 4 10 6 0 11 -4 11 -10z m-140 -330 c0 -5 -2 -10 -4 -10 -3 0 -8 5 -11 10
-3 6 -1 10 4 10 6 0 11 -4 11 -10z m90 -265 c0 -8 -2 -15 -4 -15 -2 0 -6 7
-10 15 -3 8 -1 15 4 15 6 0 10 -7 10 -15z m20 -84 c0 -24 -8 -48 -20 -62 -24
-29 -24 -24 -5 31 8 24 12 52 9 63 -4 13 -2 17 5 13 6 -4 11 -24 11 -45z m-93
-83 c-3 -8 -6 -5 -6 6 -1 11 2 17 5 13 3 -3 4 -12 1 -19z m43 -48 c0 -5 -5
-10 -11 -10 -5 0 -7 5 -4 10 3 6 8 10 11 10 2 0 4 -4 4 -10z"/>
<path d="M4042 2135 c-1 -17 -7 -36 -13 -42 -9 -9 -9 -19 1 -42 7 -18 10 -47
6 -68 -5 -32 -4 -34 5 -14 5 14 8 63 6 110 -1 47 -4 72 -5 56z"/>
<path d="M2023 1648 c-34 -17 -28 -44 14 -67 29 -15 36 -14 30 4 -4 10 5 16
36 22 29 6 43 14 45 27 3 15 0 17 -14 11 -46 -18 -58 -19 -51 -2 8 20 -24 22
-60 5z"/>
<path d="M1903 1513 c9 -2 23 -2 30 0 6 3 -1 5 -18 5 -16 0 -22 -2 -12 -5z"/>
<path d="M4013 1488 c-41 -25 -34 -51 17 -67 22 -6 42 -16 46 -22 3 -6 17 -15
31 -20 21 -8 34 -4 72 20 25 16 58 34 74 40 37 14 34 24 -16 51 -41 22 -44 22
-76 6 -21 -11 -37 -14 -44 -8 -23 18 -72 18 -104 0z"/>
<path d="M1910 1490 c-13 -8 -12 -10 3 -10 9 0 17 5 17 10 0 12 -1 12 -20 0z"/>
<path d="M1843 1477 c5 -15 37 -22 37 -9 0 5 -9 12 -21 15 -13 3 -19 1 -16 -6z"/>
<path d="M1990 1430 c-17 -12 -28 -15 -36 -9 -17 14 -63 0 -101 -29 -40 -30
-42 -42 -5 -42 34 0 124 -29 133 -43 4 -6 21 1 40 15 19 14 49 33 67 42 44 22
43 52 -3 72 -45 19 -65 18 -95 -6z"/>
<path d="M1712 1420 c-10 -16 -23 -20 -70 -20 -53 0 -82 -11 -82 -32 0 -4 9
-8 20 -8 13 0 20 -7 20 -20 0 -17 -7 -20 -40 -20 -28 0 -40 -4 -40 -15 0 -8
-18 -33 -40 -56 -45 -48 -46 -49 -25 -49 25 0 17 -17 -20 -39 -36 -21 -44 -36
-22 -44 8 -4 1 -16 -20 -36 -18 -17 -33 -40 -33 -50 0 -11 -11 -32 -24 -47
-49 -54 -56 -64 -56 -79 0 -9 -7 -18 -15 -21 -7 -3 -22 -27 -31 -52 -10 -26
-21 -51 -26 -56 -4 -6 -8 -18 -8 -28 0 -10 -6 -21 -14 -24 -8 -3 -22 -23 -30
-45 -9 -21 -20 -39 -26 -39 -5 0 -10 -16 -10 -36 0 -27 -5 -37 -20 -41 -11 -3
-20 -9 -20 -13 0 -4 -13 -24 -30 -45 -16 -21 -40 -64 -51 -97 -17 -46 -25 -57
-39 -53 -19 6 -33 -16 -24 -38 2 -7 -13 -29 -35 -50 -22 -21 -46 -53 -52 -72
-8 -22 -20 -35 -31 -35 -13 0 -18 -8 -18 -30 0 -16 -4 -30 -10 -30 -5 0 -10
-6 -10 -13 0 -7 -13 -26 -30 -42 -16 -16 -30 -32 -30 -37 0 -4 187 -8 415 -8
l415 0 0 60 c0 40 -7 72 -20 98 -36 69 -49 160 -39 269 10 121 37 324 50 380
5 23 11 77 14 120 5 78 13 105 54 198 13 28 29 66 37 85 28 64 39 85 57 105
10 10 15 25 13 32 -7 17 34 62 40 46 4 -10 9 -10 20 1 19 19 18 32 -1 16 -12
-10 -15 -10 -15 3 0 8 6 18 13 20 6 3 -2 6 -18 6 -20 1 -34 -6 -43 -19z"/>
<path d="M1800 1430 c0 -5 7 -7 15 -4 8 4 15 8 15 10 0 2 -7 4 -15 4 -8 0 -15
-4 -15 -10z"/>
<path d="M3943 1371 c1 -15 5 -17 18 -10 25 13 29 12 30 -13 0 -22 1 -22 8 -3
12 30 2 45 -29 45 -22 0 -28 -4 -27 -19z"/>
<path d="M3528 962 c-18 -11 -28 -26 -28 -40 0 -28 12 -40 63 -67 20 -11 37
-23 37 -27 0 -5 6 -8 14 -8 8 0 16 -5 18 -10 2 -6 13 -2 26 10 12 11 22 18 22
14 0 -4 8 2 18 13 9 11 27 23 40 27 31 10 29 51 -5 81 -27 23 -63 33 -63 17 0
-4 -9 -13 -21 -20 -18 -11 -23 -10 -38 7 -22 25 -46 25 -83 3z"/>
<path d="M2598 908 c-25 -20 -28 -20 -52 -5 -27 18 -66 23 -66 8 0 -5 -9 -13
-21 -16 -15 -5 -19 -14 -17 -32 2 -21 18 -33 76 -64 39 -21 72 -33 72 -28 0 5
5 9 11 9 6 0 17 6 24 13 29 25 42 35 63 46 32 17 28 50 -8 64 -16 6 -30 15
-30 19 0 14 -24 7 -52 -14z"/>
<path d="M1943 560 c6 -22 13 -38 15 -36 6 7 -10 76 -18 76 -4 0 -2 -18 3 -40z"/>
<path d="M4419 577 c-5 -7 -24 -34 -41 -62 -17 -27 -39 -62 -49 -77 -26 -37
-24 -45 14 -51 17 -3 41 -9 51 -13 14 -5 17 -4 12 4 -4 7 -2 12 3 12 6 0 11 4
11 10 0 10 14 29 61 82 36 41 29 81 -17 96 -26 8 -37 7 -45 -1z"/>
<path d="M1637 463 c-17 -16 -4 -79 27 -142 l35 -68 35 11 c32 10 36 15 36 43
0 18 -4 33 -10 33 -5 0 -10 7 -10 16 0 8 -4 13 -9 9 -5 -3 -12 4 -16 15 -6 18
-17 24 -37 21 -4 0 -10 10 -14 24 -7 27 -27 48 -37 38z"/>
<path d="M3035 337 c-22 -12 -41 -22 -43 -23 -7 -2 12 -64 20 -64 11 0 130
-79 141 -94 6 -8 10 -7 14 2 2 6 11 12 19 12 8 0 14 5 14 10 0 6 7 10 15 10 8
0 15 7 15 15 0 8 7 15 15 15 8 0 15 5 15 10 0 6 7 10 15 10 8 0 14 6 13 13 -2
6 3 11 10 10 20 -5 14 51 -9 70 -35 30 -76 33 -105 6 l-25 -23 -37 19 c-20 10
-39 20 -42 21 -3 1 -23 -8 -45 -19z"/>
<path d="M4042 318 c-15 -15 -16 -74 -2 -83 6 -4 18 -25 28 -48 l17 -42 6 30
c8 41 4 106 -8 114 -5 3 -14 14 -19 24 -8 13 -13 14 -22 5z"/>
<path d="M2196 234 c-7 -25 -8 -26 -26 -9 -19 17 -20 17 -30 -10 -6 -15 -8
-37 -4 -49 9 -29 54 -106 63 -106 3 0 17 32 30 71 19 53 22 76 15 97 -13 37
-40 40 -48 6z"/>
<path d="M2099 118 c0 -18 -4 -42 -8 -53 -7 -18 -9 -18 -26 8 -25 39 -48 36
-40 -5 14 -71 10 -68 87 -67 66 1 69 2 64 23 -3 11 -6 28 -6 36 0 9 -10 28
-22 44 l-23 28 -12 -59 -11 -58 5 68 c3 37 3 67 -1 67 -3 0 -6 -15 -7 -32z"/>
</g>
</svg>
